<mxfile host="Electron" modified="2023-06-08T08:14:12.941Z" agent="Mozilla/5.0 (Windows NT 10.0; Win64; x64) AppleWebKit/537.36 (KHTML, like Gecko) draw.io/21.2.1 Chrome/112.0.5615.87 Electron/24.1.2 Safari/537.36" etag="Zo3KIcwqMWb4tGiGFB7H" version="21.2.1" type="device">
  <diagram name="Page-1" id="edf60f1a-56cd-e834-aa8a-f176f3a09ee4">
    <mxGraphModel dx="1036" dy="614" grid="1" gridSize="10" guides="1" tooltips="1" connect="1" arrows="1" fold="1" page="1" pageScale="1" pageWidth="850" pageHeight="1100" background="none" math="0" shadow="0">
      <root>
        <mxCell id="0" />
        <mxCell id="1" parent="0" />
        <mxCell id="vUtEQ1WDIaLr55wLkuLu-19" value="ZED SDK" style="edgeStyle=orthogonalEdgeStyle;rounded=0;orthogonalLoop=1;jettySize=auto;html=1;entryX=0.5;entryY=0;entryDx=0;entryDy=0;fontSize=14;fontStyle=1" parent="1" source="60e70716793133e9-4" target="vUtEQ1WDIaLr55wLkuLu-18" edge="1">
          <mxGeometry relative="1" as="geometry" />
        </mxCell>
        <mxCell id="e_K_E974sBM6reIO5fZL-2" value="ZED SDK" style="edgeStyle=orthogonalEdgeStyle;rounded=0;orthogonalLoop=1;jettySize=auto;html=1;fontSize=14;fontStyle=1" parent="1" source="60e70716793133e9-4" target="e_K_E974sBM6reIO5fZL-1" edge="1">
          <mxGeometry relative="1" as="geometry" />
        </mxCell>
        <mxCell id="e_K_E974sBM6reIO5fZL-7" value="ZED SDK" style="edgeStyle=orthogonalEdgeStyle;rounded=0;orthogonalLoop=1;jettySize=auto;html=1;exitX=0.5;exitY=1;exitDx=0;exitDy=0;entryX=0.5;entryY=0;entryDx=0;entryDy=0;fontSize=14;fontStyle=1" parent="1" source="60e70716793133e9-4" target="vUtEQ1WDIaLr55wLkuLu-16" edge="1">
          <mxGeometry relative="1" as="geometry" />
        </mxCell>
        <mxCell id="60e70716793133e9-4" value="ZED CAMERA SVO RECORDING" style="rounded=0;whiteSpace=wrap;html=1;shadow=0;labelBackgroundColor=none;strokeWidth=1;fontFamily=Verdana;fontSize=10;align=center;fontStyle=1" parent="1" vertex="1">
          <mxGeometry x="365" y="30" width="120" height="60" as="geometry" />
        </mxCell>
        <mxCell id="vUtEQ1WDIaLr55wLkuLu-32" value="" style="edgeStyle=orthogonalEdgeStyle;rounded=0;orthogonalLoop=1;jettySize=auto;html=1;fontSize=10;fontStyle=1" parent="1" source="vUtEQ1WDIaLr55wLkuLu-16" target="vUtEQ1WDIaLr55wLkuLu-31" edge="1">
          <mxGeometry relative="1" as="geometry" />
        </mxCell>
        <mxCell id="vUtEQ1WDIaLr55wLkuLu-16" value="POINT CLOUD OF SEGMENTED AREA" style="whiteSpace=wrap;html=1;fontSize=10;fontFamily=Verdana;rounded=0;shadow=0;labelBackgroundColor=none;strokeWidth=1;fontStyle=1" parent="1" vertex="1">
          <mxGeometry x="365" y="330" width="120" height="60" as="geometry" />
        </mxCell>
        <mxCell id="vUtEQ1WDIaLr55wLkuLu-44" value="TBD" style="edgeStyle=orthogonalEdgeStyle;rounded=0;orthogonalLoop=1;jettySize=auto;html=1;fontSize=10;fontStyle=1" parent="1" source="vUtEQ1WDIaLr55wLkuLu-18" target="vUtEQ1WDIaLr55wLkuLu-43" edge="1">
          <mxGeometry relative="1" as="geometry" />
        </mxCell>
        <mxCell id="vUtEQ1WDIaLr55wLkuLu-18" value="MESH OF SEGMENTED AREA" style="whiteSpace=wrap;html=1;fontSize=10;fontFamily=Verdana;rounded=0;shadow=0;labelBackgroundColor=none;strokeWidth=1;fontStyle=1" parent="1" vertex="1">
          <mxGeometry x="630" y="590" width="120" height="60" as="geometry" />
        </mxCell>
        <mxCell id="vUtEQ1WDIaLr55wLkuLu-25" value="" style="edgeStyle=orthogonalEdgeStyle;rounded=0;orthogonalLoop=1;jettySize=auto;html=1;fontSize=10;fontStyle=1" parent="1" source="vUtEQ1WDIaLr55wLkuLu-22" target="vUtEQ1WDIaLr55wLkuLu-24" edge="1">
          <mxGeometry relative="1" as="geometry" />
        </mxCell>
        <mxCell id="vUtEQ1WDIaLr55wLkuLu-22" value="LEAF MASK" style="whiteSpace=wrap;html=1;fontSize=10;fontFamily=Verdana;rounded=0;shadow=0;labelBackgroundColor=none;strokeWidth=1;fontStyle=1" parent="1" vertex="1">
          <mxGeometry x="100" y="230" width="120" height="60" as="geometry" />
        </mxCell>
        <mxCell id="e_K_E974sBM6reIO5fZL-4" style="edgeStyle=orthogonalEdgeStyle;rounded=0;orthogonalLoop=1;jettySize=auto;html=1;exitX=1;exitY=0.5;exitDx=0;exitDy=0;fontSize=10;fontStyle=1" parent="1" source="vUtEQ1WDIaLr55wLkuLu-24" target="vUtEQ1WDIaLr55wLkuLu-16" edge="1">
          <mxGeometry relative="1" as="geometry" />
        </mxCell>
        <mxCell id="vUtEQ1WDIaLr55wLkuLu-24" value="MATRIX OF COORDINATES OF LEAF MASK IN PLANT IMAGE" style="whiteSpace=wrap;html=1;fontSize=10;fontFamily=Verdana;rounded=0;shadow=0;labelBackgroundColor=none;strokeWidth=1;fontStyle=1" parent="1" vertex="1">
          <mxGeometry x="100" y="330" width="120" height="60" as="geometry" />
        </mxCell>
        <mxCell id="vUtEQ1WDIaLr55wLkuLu-34" value="NO" style="edgeStyle=orthogonalEdgeStyle;rounded=0;orthogonalLoop=1;jettySize=auto;html=1;fontSize=10;fontStyle=1" parent="1" source="vUtEQ1WDIaLr55wLkuLu-31" target="vUtEQ1WDIaLr55wLkuLu-33" edge="1">
          <mxGeometry x="-0.125" y="-10" relative="1" as="geometry">
            <mxPoint as="offset" />
          </mxGeometry>
        </mxCell>
        <mxCell id="vUtEQ1WDIaLr55wLkuLu-38" value="YES" style="edgeStyle=orthogonalEdgeStyle;rounded=0;orthogonalLoop=1;jettySize=auto;html=1;fontSize=10;fontStyle=1" parent="1" source="vUtEQ1WDIaLr55wLkuLu-31" target="vUtEQ1WDIaLr55wLkuLu-37" edge="1">
          <mxGeometry x="0.0769" y="-15" relative="1" as="geometry">
            <mxPoint as="offset" />
          </mxGeometry>
        </mxCell>
        <mxCell id="vUtEQ1WDIaLr55wLkuLu-31" value="IS IT ONE LEAF?" style="rhombus;whiteSpace=wrap;html=1;fontSize=10;fontFamily=Verdana;rounded=0;shadow=0;labelBackgroundColor=none;strokeWidth=1;fontStyle=1" parent="1" vertex="1">
          <mxGeometry x="380" y="430" width="90" height="90" as="geometry" />
        </mxCell>
        <mxCell id="vUtEQ1WDIaLr55wLkuLu-33" value="REJECT LEAF" style="whiteSpace=wrap;html=1;fontSize=10;fontFamily=Verdana;rounded=0;shadow=0;labelBackgroundColor=none;strokeWidth=1;fontStyle=1" parent="1" vertex="1">
          <mxGeometry x="100" y="445" width="120" height="60" as="geometry" />
        </mxCell>
        <mxCell id="vUtEQ1WDIaLr55wLkuLu-40" value="YES" style="edgeStyle=orthogonalEdgeStyle;rounded=0;orthogonalLoop=1;jettySize=auto;html=1;entryX=0.25;entryY=0;entryDx=0;entryDy=0;fontSize=10;fontStyle=1" parent="1" source="vUtEQ1WDIaLr55wLkuLu-37" target="vUtEQ1WDIaLr55wLkuLu-39" edge="1">
          <mxGeometry x="-0.0833" y="-15" relative="1" as="geometry">
            <mxPoint as="offset" />
          </mxGeometry>
        </mxCell>
        <mxCell id="e_K_E974sBM6reIO5fZL-8" value="NO" style="edgeStyle=orthogonalEdgeStyle;rounded=0;orthogonalLoop=1;jettySize=auto;html=1;exitX=1;exitY=0.5;exitDx=0;exitDy=0;entryX=0;entryY=0.5;entryDx=0;entryDy=0;fontSize=10;fontStyle=1" parent="1" source="vUtEQ1WDIaLr55wLkuLu-37" target="vUtEQ1WDIaLr55wLkuLu-18" edge="1">
          <mxGeometry x="0.0303" y="10" relative="1" as="geometry">
            <mxPoint as="offset" />
          </mxGeometry>
        </mxCell>
        <mxCell id="vUtEQ1WDIaLr55wLkuLu-37" value="IS IT FLAT ENOUGH?" style="rhombus;whiteSpace=wrap;html=1;fontSize=10;fontFamily=Verdana;rounded=0;shadow=0;labelBackgroundColor=none;strokeWidth=1;fontStyle=1" parent="1" vertex="1">
          <mxGeometry x="385" y="580" width="80" height="80" as="geometry" />
        </mxCell>
        <mxCell id="vUtEQ1WDIaLr55wLkuLu-39" value="CALCULATE WIDEST DISTANCE OF LEAF" style="whiteSpace=wrap;html=1;fontSize=10;fontFamily=Verdana;rounded=0;shadow=0;labelBackgroundColor=none;strokeWidth=1;fontStyle=1" parent="1" vertex="1">
          <mxGeometry x="395" y="1030" width="120" height="60" as="geometry" />
        </mxCell>
        <mxCell id="vUtEQ1WDIaLr55wLkuLu-46" value="POINT CLOUD PYTHON LIBRARY" style="edgeStyle=orthogonalEdgeStyle;rounded=0;orthogonalLoop=1;jettySize=auto;html=1;fontSize=14;fontStyle=1" parent="1" source="vUtEQ1WDIaLr55wLkuLu-43" target="vUtEQ1WDIaLr55wLkuLu-45" edge="1">
          <mxGeometry relative="1" as="geometry" />
        </mxCell>
        <mxCell id="vUtEQ1WDIaLr55wLkuLu-43" value="FLATTEN MESH" style="whiteSpace=wrap;html=1;fontSize=10;fontFamily=Verdana;rounded=0;shadow=0;labelBackgroundColor=none;strokeWidth=1;fontStyle=1" parent="1" vertex="1">
          <mxGeometry x="630" y="710" width="120" height="60" as="geometry" />
        </mxCell>
        <mxCell id="5IhjEWg1urpU2mbJ30z1-11" style="edgeStyle=orthogonalEdgeStyle;rounded=0;orthogonalLoop=1;jettySize=auto;html=1;exitX=0.5;exitY=1;exitDx=0;exitDy=0;entryX=0.5;entryY=0;entryDx=0;entryDy=0;" parent="1" source="vUtEQ1WDIaLr55wLkuLu-45" target="5IhjEWg1urpU2mbJ30z1-3" edge="1">
          <mxGeometry relative="1" as="geometry" />
        </mxCell>
        <mxCell id="vUtEQ1WDIaLr55wLkuLu-45" value="POINT CLOUD OF FLATTENED MESH" style="whiteSpace=wrap;html=1;fontSize=10;fontFamily=Verdana;rounded=0;shadow=0;labelBackgroundColor=none;strokeWidth=1;fontStyle=1" parent="1" vertex="1">
          <mxGeometry x="630" y="830" width="120" height="60" as="geometry" />
        </mxCell>
        <mxCell id="e_K_E974sBM6reIO5fZL-3" value="MASK R-CNN TRAINED MODEL" style="edgeStyle=orthogonalEdgeStyle;rounded=0;orthogonalLoop=1;jettySize=auto;html=1;exitX=0.5;exitY=1;exitDx=0;exitDy=0;entryX=0.5;entryY=0;entryDx=0;entryDy=0;fontSize=14;fontStyle=1" parent="1" source="e_K_E974sBM6reIO5fZL-1" target="vUtEQ1WDIaLr55wLkuLu-22" edge="1">
          <mxGeometry relative="1" as="geometry" />
        </mxCell>
        <mxCell id="e_K_E974sBM6reIO5fZL-1" value="2D IMAGE" style="whiteSpace=wrap;html=1;fontSize=10;fontFamily=Verdana;rounded=0;shadow=0;labelBackgroundColor=none;strokeWidth=1;fontStyle=1" parent="1" vertex="1">
          <mxGeometry x="100" y="100" width="120" height="60" as="geometry" />
        </mxCell>
        <mxCell id="5IhjEWg1urpU2mbJ30z1-6" value="&lt;b style=&quot;font-size: 10px;&quot;&gt;YES&lt;/b&gt;" style="edgeStyle=orthogonalEdgeStyle;rounded=0;orthogonalLoop=1;jettySize=auto;html=1;entryX=0.71;entryY=0.003;entryDx=0;entryDy=0;entryPerimeter=0;fontSize=10;" parent="1" source="5IhjEWg1urpU2mbJ30z1-3" target="vUtEQ1WDIaLr55wLkuLu-39" edge="1">
          <mxGeometry x="-0.2727" y="-10" relative="1" as="geometry">
            <mxPoint x="480" y="1000" as="targetPoint" />
            <mxPoint as="offset" />
          </mxGeometry>
        </mxCell>
        <mxCell id="5IhjEWg1urpU2mbJ30z1-14" value="&lt;b&gt;&lt;font style=&quot;font-size: 10px;&quot;&gt;NO&lt;/font&gt;&lt;/b&gt;" style="edgeStyle=orthogonalEdgeStyle;rounded=0;orthogonalLoop=1;jettySize=auto;html=1;" parent="1" source="5IhjEWg1urpU2mbJ30z1-3" target="5IhjEWg1urpU2mbJ30z1-13" edge="1">
          <mxGeometry y="10" relative="1" as="geometry">
            <mxPoint as="offset" />
          </mxGeometry>
        </mxCell>
        <mxCell id="5IhjEWg1urpU2mbJ30z1-3" value="IS IT FLAT ENOUGH?" style="rhombus;whiteSpace=wrap;html=1;fontSize=10;fontFamily=Verdana;rounded=0;shadow=0;labelBackgroundColor=none;strokeWidth=1;fontStyle=1" parent="1" vertex="1">
          <mxGeometry x="650" y="910" width="80" height="80" as="geometry" />
        </mxCell>
        <mxCell id="5IhjEWg1urpU2mbJ30z1-13" value="REJECT LEAF" style="whiteSpace=wrap;html=1;fontSize=10;fontFamily=Verdana;rounded=0;shadow=0;labelBackgroundColor=none;strokeWidth=1;fontStyle=1;" parent="1" vertex="1">
          <mxGeometry x="630" y="1030" width="120" height="60" as="geometry" />
        </mxCell>
      </root>
    </mxGraphModel>
  </diagram>
</mxfile>
